# xmcd
# Track frame offsets:
# 150
# 17567
# 37830
# 64487
# 83717
# 107802
# 119332
# 138670
# 151647
# 168187
# 193417
# 220107
# 243827
# 268740
# 279535
# 295930
#
# Disc length: 4151 seconds
# Revision: 0
# Processed by: cddbd v1.4PL0 Copyright (c) Steve Scherf et al.
# Submitted via: VisiTrax 2.9.5.181 - For more info visit www.synapsa.com
#
DISCID=e4103510
DTITLE=Various Artist - Blues Harmonica Orgy
DYEAR=2002
DGENRE=
TTITLE0=Blues With a Feeling
TTITLE1=Read Way Back
TTITLE2=Hoodoo Man Blues
TTITLE3=You're The One
TTITLE4=Sugar Mama
TTITLE5=Martin Leaps In
TTITLE6=Sad Sad Day
TTITLE7=Pukaski Stomp
TTITLE8=Ten-Hole Blues
TTITLE9=Leavin' In The Mornin'
TTITLE10=Pretty Thing
TTITLE11=Young Fashioned Ways
TTITLE12=Room 309
TTITLE13=Crazy Mixed Up World
TTITLE14=Wille Mae
TTITLE15=This Little Light Of Mine
EXTD=Random Chance Records
EXTT0=
EXTT1=
EXTT2=
EXTT3=
EXTT4=
EXTT5=
EXTT6=
EXTT7=
EXTT8=
EXTT9=
EXTT10=
EXTT11=
EXTT12=
EXTT13=
EXTT14=
EXTT15=
PLAYORDER=
